<?xml version="1.0" encoding="UTF-8"?>
<svg version="1.1" xmlns="http://www.w3.org/2000/svg" width="364" height="366">
<path d="M0 0 C0.66 0.99 1.32 1.98 2 3 C-1.3 5.97 -4.6 8.94 -8 12 C-4.83772601 12 -1.88359512 11.82985212 1.25 11.5 C2.14203125 11.4071875 3.0340625 11.314375 3.953125 11.21875 C4.62859375 11.1465625 5.3040625 11.074375 6 11 C6.33 12.32 6.66 13.64 7 15 C3.37 17.97 -0.26 20.94 -4 24 C0.95 23.34 5.9 22.68 11 22 C11 23.32 11 24.64 11 26 C8.43850372 26.50567729 5.87600535 27.00470132 3.3125 27.5 C2.2306543 27.71462891 2.2306543 27.71462891 1.12695312 27.93359375 C-2.63841359 28.65571887 -6.14473813 29.1824976 -10 29 C-10.33 27.68 -10.66 26.36 -11 25 C-7.37 22.03 -3.74 19.06 0 16 C-4.95 16.66 -9.9 17.32 -15 18 C-15.66 16.68 -16.32 15.36 -17 14 C-14.54462247 11.85076482 -12.08520798 9.70620312 -9.625 7.5625 C-8.92632812 6.95083984 -8.22765625 6.33917969 -7.5078125 5.70898438 C-6.8375 5.12568359 -6.1671875 4.54238281 -5.4765625 3.94140625 C-4.85861816 3.40201416 -4.24067383 2.86262207 -3.60400391 2.30688477 C-2 1 -2 1 0 0 Z " fill="#030303" transform="translate(336,91)"/>
<path d="M0 0 C7.26 0 14.52 0 22 0 C22 1.65 22 3.3 22 5 C19.89828133 5.8394882 17.79353375 6.67139656 15.6875 7.5 C14.51574219 7.9640625 13.34398437 8.428125 12.13671875 8.90625 C9 10 9 10 6 10 C6 10.66 6 11.32 6 12 C6.78375 12.0825 7.5675 12.165 8.375 12.25 C13.177645 13.24365069 17.49809489 15.08713518 22 17 C22 18.65 22 20.3 22 22 C14.74 22 7.48 22 0 22 C0 20.68 0 19.36 0 18 C4.62 18 9.24 18 14 18 C11.875625 17.2575 9.75125 16.515 7.5625 15.75 C3.94140625 14.484375 3.94140625 14.484375 1 13 C0.67 11.68 0.34 10.36 0 9 C4.29 7.35 8.58 5.7 13 4 C8.71 3.67 4.42 3.34 0 3 C0 2.01 0 1.02 0 0 Z " fill="#030303" transform="translate(338,172)"/>
<path d="M0 0 C0.99 0.33 1.98 0.66 3 1 C2.67 1.99 2.34 2.98 2 4 C2.5775 4.0825 3.155 4.165 3.75 4.25 C6.8864184 5.2954728 8.08956046 6.27080066 10 9 C10.78996455 12.81212252 10.85884358 16.33511061 9.046875 19.84765625 C6.5220018 23.09962901 4.01446471 25.13975756 0 26 C-4.36575536 25.92204008 -6.41406503 25.4585578 -9.875 22.75 C-12.06844664 19.91142199 -12.91116556 18.55337778 -13 15 C-12.0625 12.1875 -12.0625 12.1875 -11 10 C-10.01 10.33 -9.02 10.66 -8 11 C-8.04125 12.093125 -8.0825 13.18625 -8.125 14.3125 C-8.32074666 18.08892229 -8.32074666 18.08892229 -6 21 C-1.62915563 21.65975009 0.32762738 21.46225618 4 18.9375 C6.37167163 16.07504597 6.37167163 16.07504597 5.875 12.25 C5.33537851 9.16905703 5.33537851 9.16905703 4 8 C1.67182036 7.63239269 -0.6618385 7.29758419 -3 7 C-2.2265625 8.1446875 -2.2265625 8.1446875 -1.4375 9.3125 C-0.963125 10.199375 -0.48875 11.08625 0 12 C-0.33 12.99 -0.66 13.98 -1 15 C-4.30960527 12.56134348 -6.31847927 10.74020498 -8 7 C-6.74057614 5.80040625 -5.46704714 4.61560557 -4.1875 3.4375 C-3.12595703 2.44556641 -3.12595703 2.44556641 -2.04296875 1.43359375 C-1.03169922 0.72396484 -1.03169922 0.72396484 0 0 Z " fill="#030303" transform="translate(55,275)"/>
<path d="M0 0 C0.99 0.33 1.98 0.66 3 1 C3 6.94 3 12.88 3 19 C5.64 15.7 8.28 12.4 11 9 C11.99 9.33 12.98 9.66 14 10 C12.70944264 12.74967731 11.28915704 15.07873302 9.3984375 17.453125 C8.90859375 18.071875 8.41875 18.690625 7.9140625 19.328125 C7.40617187 19.96234375 6.89828125 20.5965625 6.375 21.25 C5.859375 21.8996875 5.34375 22.549375 4.8125 23.21875 C3.54485821 24.81503967 2.27285639 26.40786526 1 28 C0.01 27.67 -0.98 27.34 -2 27 C-2 21.06 -2 15.12 -2 9 C-4.64 12.3 -7.28 15.6 -10 19 C-10.99 18.67 -11.98 18.34 -13 18 C-11.4805627 13.1396313 -8.67081346 9.93920644 -5.375 6.1875 C-4.859375 5.59001953 -4.34375 4.99253906 -3.8125 4.37695312 C-2.54753728 2.91287591 -1.27456166 1.45572845 0 0 Z " fill="#030303" transform="translate(78,299)"/>
<path d="M0 0 C3.15608054 1.22516024 6.29754513 2.48414257 9.4375 3.75 C10.33533203 4.09804687 11.23316406 4.44609375 12.15820312 4.8046875 C13.01220703 5.15273437 13.86621094 5.50078125 14.74609375 5.859375 C15.93223267 6.33068848 15.93223267 6.33068848 17.14233398 6.81152344 C19 8 19 8 19.76586914 10.13378906 C19.84313232 10.74963867 19.92039551 11.36548828 20 12 C13.74051886 14.13391403 7.57791873 14.58955515 1 15 C1 15.66 1 16.32 1 17 C1.59167969 17.19335938 2.18335938 17.38671875 2.79296875 17.5859375 C6.9146645 18.94414719 10.9950524 20.32050585 15 22 C14.67 22.99 14.34 23.98 14 25 C9.18080529 24.32512263 5.08116134 22.42034091 0.6875 20.4375 C-0.05306641 20.10814453 -0.79363281 19.77878906 -1.55664062 19.43945312 C-3.37311562 18.63082877 -5.18683931 17.81602884 -7 17 C-6.67 15.68 -6.34 14.36 -6 13 C-0.39 12.01 5.22 11.02 11 10 C8.4347341 8.28982274 6.12039035 7.09582189 3.3125 5.875 C2.50425781 5.52179688 1.69601562 5.16859375 0.86328125 4.8046875 C0.24839844 4.53914062 -0.36648438 4.27359375 -1 4 C-0.67 2.68 -0.34 1.36 0 0 Z " fill="#030303" transform="translate(328,236)"/>
<path d="M0 0 C1.875 1.125 1.875 1.125 3 3 C2.979375 3.969375 2.95875 4.93875 2.9375 5.9375 C2.66606404 9.08671155 2.66606404 9.08671155 4.875 11.0625 C5.57625 11.701875 6.2775 12.34125 7 13 C8.25 15.75 8.25 15.75 9 18 C7.68 18 6.36 18 5 18 C3.25 15.5 3.25 15.5 2 13 C-1.02419525 13.58803797 -4.01758453 14.22678118 -7 15 C-6.484375 15.9075 -5.96875 16.815 -5.4375 17.75 C-4 21 -4 21 -4.3125 23.375 C-4.6528125 24.179375 -4.6528125 24.179375 -5 25 C-5.66 25 -6.32 25 -7 25 C-9.97 18.73 -12.94 12.46 -16 6 C-11.47430539 1.47430539 -6.47541083 -0.88301057 0 0 Z M-11 6 C-10.34 7.98 -9.68 9.96 -9 12 C-4.04485498 11.12527407 -4.04485498 11.12527407 -0.5625 7.875 C-0.376875 7.25625 -0.19125 6.6375 0 6 C-0.66 5.01 -1.32 4.02 -2 3 C-5.69418201 3 -7.77836178 4.28179295 -11 6 Z " fill="#030303" transform="translate(116,17)"/>
<path d="M0 0 C3.26095224 3.04828144 4.76565816 5.2280504 6.0625 9.5 C5.98428332 13.88013408 4.78223177 15.67677872 2 19 C-1.75456567 21.50304378 -3.54745934 21.45280074 -8 21 C-12.34426379 18.74432457 -15.05791513 16.53153136 -17 12 C-17.58215321 8.09125703 -17.15326961 6.30653922 -15.375 2.75 C-10.75045088 -2.60474109 -6.3280524 -2.76133196 0 0 Z M-12.4375 4.1875 C-14.18901287 6.82828276 -14.18901287 6.82828276 -14.0625 9.5 C-12.6146381 12.90673388 -10.88630503 14.69095598 -8 17 C-4.59898763 18.11053465 -2.93107909 18.3920333 0.375 17 C2.29563856 14.98352421 2.29563856 14.98352421 2.5 11.625 C1.93085715 7.49871433 0.91075735 5.91075735 -2 3 C-6.06586102 0.96706949 -9.06315897 1.15924523 -12.4375 4.1875 Z " fill="#020202" transform="translate(62,60)"/>
<path d="M0 0 C5.53846154 3.07692308 5.53846154 3.07692308 7 6 C7.55334456 11.4163919 7.50285843 15.58899309 4 20 C3.608125 20.598125 3.21625 21.19625 2.8125 21.8125 C-0.25579153 23.82275997 -3.51648172 23.61125887 -7 23 C-12.5 20 -12.5 20 -14 17 C-14.58118751 12.23616799 -14.45088085 8.85511886 -12.1875 4.5625 C-8.34771626 0.06446762 -5.79236747 -0.58905432 0 0 Z M-7.6875 5.0625 C-10.45819454 8.5820309 -11.07974177 10.53446105 -11 15 C-9.610911 18.04913936 -9.610911 18.04913936 -7 20 C-3.3995835 20.67507809 -1.76545222 20.49650955 1.3125 18.5 C3.60330611 15.10621317 4.48725621 12.10107309 4 8 C1.97791641 4.89385913 1.97791641 4.89385913 -1 3 C-5.03574504 2.59412081 -5.03574504 2.59412081 -7.6875 5.0625 Z " fill="#020202" transform="translate(230,8)"/>
<path d="M0 0 C3.07902353 2.19612281 4.53812325 4.47754776 5.24609375 8.09375 C5.48462275 12.44484794 4.00231774 14.88567142 1.12109375 18.15625 C-3.08044011 20.72287738 -7.07991532 20.83325051 -11.87890625 20.15625 C-15.60894743 18.17218554 -16.6377274 16.68885329 -18.37890625 12.84375 C-19.00283367 8.24228529 -18.24271179 6.12134316 -15.87890625 2.15625 C-11.57534822 -1.76758232 -5.2965448 -2.37848997 0 0 Z M-13.87890625 5.15625 C-15.26440822 7.92725394 -15.06665295 10.0897206 -14.87890625 13.15625 C-13.14800744 16.46676788 -13.14800744 16.46676788 -9.62890625 17.03125 C-5.36882405 17.17325274 -3.41966915 16.46186305 0.12109375 14.15625 C2.41102059 11.34092943 2.41102059 11.34092943 2.05859375 8.15625 C1.37999333 5.01256765 1.37999333 5.01256765 -1.19140625 3.28125 C-6.2775075 1.15218436 -9.34511697 2.53672731 -13.87890625 5.15625 Z " fill="#020202" transform="translate(351.87890625,134.84375)"/>
<path d="M0 0 C0.67363372 2.72761511 1.33909444 5.456799 2 8.1875 C2.19078125 8.95642578 2.3815625 9.72535156 2.578125 10.51757812 C3.51623421 14.42078253 4.25957208 17.95229795 4 22 C2.0636296 22.50435694 0.12585854 23.00333874 -1.8125 23.5 C-2.89144531 23.7784375 -3.97039062 24.056875 -5.08203125 24.34375 C-8 25 -8 25 -11 25 C-10.67 23.68 -10.34 22.36 -10 21 C-7.03 20.34 -4.06 19.68 -1 19 C-1.33 17.35 -1.66 15.7 -2 14 C-5.3 14.66 -8.6 15.32 -12 16 C-12.33 15.01 -12.66 14.02 -13 13 C-9.6828589 11.5783681 -6.55780196 10.60990891 -3 10 C-3 8.02 -3 6.04 -3 4 C-4.216875 4.350625 -5.43375 4.70125 -6.6875 5.0625 C-10.12086896 5.93456352 -12.55349859 6.07703169 -16 5 C-15 3 -15 3 -12.63671875 2.1484375 C-11.66347656 1.89320313 -10.69023437 1.63796875 -9.6875 1.375 C-8.72199219 1.11460937 -7.75648438 0.85421875 -6.76171875 0.5859375 C-4 0 -4 0 0 0 Z " fill="#040404" transform="translate(217,336)"/>
<path d="M0 0 C0.33 0.66 0.66 1.32 1 2 C0.34 2.66 -0.32 3.32 -1 4 C-3 4 -5 4 -7 4 C-9.28728734 5.83883881 -9.28728734 5.83883881 -9.125 8.625 C-9.08375 9.40875 -9.0425 10.1925 -9 11 C-5.83695138 10.04372949 -3.20923982 9.13779207 -0.4375 7.3125 C2 6 2 6 4.6875 6.1875 C7 7 7 7 9 9 C9.49117867 12.68384 9.25340053 14.54387905 7.4375 17.8125 C4.31187146 20.61755125 2.14142559 20.84661387 -2 21 C-2.66 20.67 -3.32 20.34 -4 20 C-3.67 19.01 -3.34 18.02 -3 17 C0.465 16.505 0.465 16.505 4 16 C4.33 14.35 4.66 12.7 5 11 C2.00552858 11.42778163 0.1489033 11.89811879 -2.375 13.625 C-5.97146609 15.50886319 -8.1393152 15.01980353 -12 14 C-14 11 -14 11 -13.9375 8.125 C-12.77695839 4.25652796 -11.041169 2.59611988 -8 0 C-5.09660535 -1.45169732 -3.09125158 -0.72348441 0 0 Z " fill="#040404" transform="translate(309,282)"/>
<path d="M0 0 C0.66 0 1.32 0 2 0 C4.31 4.62 6.62 9.24 9 14 C6.069106 15.69997827 3.13129767 17.3851416 0.1875 19.0625 C-0.64587891 19.54783203 -1.47925781 20.03316406 -2.33789062 20.53320312 C-3.14033203 20.98759766 -3.94277344 21.44199219 -4.76953125 21.91015625 C-5.87711792 22.54642944 -5.87711792 22.54642944 -7.00708008 23.19555664 C-9 24 -9 24 -12 23 C-13.60546875 20.56640625 -13.60546875 20.56640625 -15.1875 17.5625 C-15.71730469 16.57378906 -16.24710938 15.58507812 -16.79296875 14.56640625 C-18 12 -18 12 -18 10 C-17.01 9.67 -16.02 9.34 -15 9 C-13.02 12.3 -11.04 15.6 -9 19 C-7.68 18.01 -6.36 17.02 -5 16 C-5.66 14.906875 -6.32 13.81375 -7 12.6875 C-8.58464929 10.06292462 -9 9.1743622 -9 6 C-8.01 6 -7.02 6 -6 6 C-2 12.75 -2 12.75 -2 15 C-0.02 14.34 1.96 13.68 4 13 C3.62746094 12.31292969 3.25492188 11.62585938 2.87109375 10.91796875 C2.39800781 10.01691406 1.92492187 9.11585938 1.4375 8.1875 C0.96183594 7.29417969 0.48617187 6.40085938 -0.00390625 5.48046875 C-1 3 -1 3 0 0 Z " fill="#040404" transform="translate(38,247)"/>
<path d="M0 0 C0 0.99 0 1.98 0 3 C-3.9813783 4.3271261 -7.85045227 4.06915913 -12 4 C-12 5.98 -12 7.96 -12 10 C-6.555 9.505 -6.555 9.505 -1 9 C-1 10.32 -1 11.64 -1 13 C-4.3 13 -7.6 13 -11 13 C-11 15.31 -11 17.62 -11 20 C-7.37 19.67 -3.74 19.34 0 19 C0 20.32 0 21.64 0 23 C-4.95 23 -9.9 23 -15 23 C-15.33 15.74 -15.66 8.48 -16 1 C-10.31658909 0.28957364 -5.5930202 -0.09987536 0 0 Z " fill="#020202" transform="translate(182,2)"/>
<path d="M0 0 C1.9375 1.4375 1.9375 1.4375 3 3 C3 3.66 3 4.32 3 5 C1.68 5 0.36 5 -1 5 C-1 4.34 -1 3.68 -1 3 C-3.31 3.33 -5.62 3.66 -8 4 C-8 5.32 -8 6.64 -8 8 C-6.86111328 8.05607422 -6.86111328 8.05607422 -5.69921875 8.11328125 C-4.70535156 8.17902344 -3.71148437 8.24476562 -2.6875 8.3125 C-1.70136719 8.37050781 -0.71523437 8.42851562 0.30078125 8.48828125 C3 9 3 9 4.86328125 10.32421875 C6 12 6 12 5.875 15.5 C5.00130277 18.9947889 4.76405965 19.93157229 2 22 C-1.38835693 22.67880272 -4.60359301 22.62258197 -8 22 C-10.625 19.5 -10.625 19.5 -12 17 C-11.01 16.34 -10.02 15.68 -9 15 C-8.67 15.495 -8.34 15.99 -8 16.5 C-4.82427253 18.88179561 -1.89753934 18.19168226 2 18 C1.67 16.35 1.34 14.7 1 13 C-0.13888672 12.94392578 -0.13888672 12.94392578 -1.30078125 12.88671875 C-2.29464844 12.82097656 -3.28851563 12.75523438 -4.3125 12.6875 C-5.29863281 12.62949219 -6.28476563 12.57148438 -7.30078125 12.51171875 C-10.27844128 11.94721301 -11.30320284 11.48438902 -13 9 C-13 5.5 -13 5.5 -12 2 C-8.14376042 -1.62940196 -4.95339506 -1.28421353 0 0 Z " fill="#030303" transform="translate(144,8)"/>
<path d="M0 0 C0.99 0 1.98 0 3 0 C2.67 2.97 2.34 5.94 2 9 C6.95 10.98 6.95 10.98 12 13 C12.33 10.36 12.66 7.72 13 5 C14.32 4.67 15.64 4.34 17 4 C16.36684209 9.12524666 15.31839344 13.96530771 13.9375 18.9375 C13.75123047 19.62134766 13.56496094 20.30519531 13.37304688 21.00976562 C12.91910943 22.67420293 12.46009084 24.33725312 12 26 C10.68 25.34 9.36 24.68 8 24 C8.33 21.36 8.66 18.72 9 16 C6.03 15.01 3.06 14.02 0 13 C-0.66 15.97 -1.32 18.94 -2 22 C-2.99 21.67 -3.98 21.34 -5 21 C-4.42351925 13.64987044 -2.28953836 6.98575424 0 0 Z " fill="#030303" transform="translate(132,330)"/>
<path d="M0 0 C0.99 0 1.98 0 3 0 C2.67 3.96 2.34 7.92 2 12 C3.65 12.33 5.3 12.66 7 13 C7.66 9.7 8.32 6.4 9 3 C9.99 3 10.98 3 12 3 C11.85892253 4.45880109 11.71197585 5.91703551 11.5625 7.375 C11.48128906 8.18710938 11.40007813 8.99921875 11.31640625 9.8359375 C11 12 11 12 10 14 C12.31 14.33 14.62 14.66 17 15 C17.66 11.37 18.32 7.74 19 4 C19.99 4 20.98 4 22 4 C21.5547115 9.27315333 20.91626837 14.01770224 19 19 C11.38290378 18.5112925 4.37206762 16.97159948 -3 15 C-2.01 10.05 -1.02 5.1 0 0 Z " fill="#040404" transform="translate(8,137)"/>
<path d="M0 0 C-0.33 0.99 -0.66 1.98 -1 3 C-4 4.125 -4 4.125 -7 5 C-8.30323831 6.10075495 -8.30323831 6.10075495 -8.375 8.8125 C-8.28948072 12.11679104 -8.28948072 12.11679104 -5.9375 14.375 C-2.33438682 16.36821155 -0.0608573 16.45971969 4 16 C4.66 15.34 5.32 14.68 6 14 C5.58984222 9.34375005 5.58984222 9.34375005 4 5 C4.33 4.34 4.66 3.68 5 3 C8.875 4.75 8.875 4.75 10 7 C10.5811138 14.08958838 10.5811138 14.08958838 8.125 17.9375 C5.41743462 20.5654311 4.54350183 20.94774021 0.75 21.3125 C-4.29197981 20.89233502 -6.84487852 18.78654963 -10.64453125 15.63671875 C-12.83897508 12.98694364 -12.46739233 10.54269461 -12.359375 7.2265625 C-11.82741775 3.93074041 -10.42836659 2.22022089 -8 0 C-4.71023192 -1.09658936 -3.28696233 -0.79953138 0 0 Z " fill="#020202" transform="translate(36,90)"/>
<path d="M0 0 C2.91672884 -0.02700675 5.83320677 -0.04684237 8.75 -0.0625 C9.9875 -0.07506836 9.9875 -0.07506836 11.25 -0.08789062 C12.04921875 -0.09111328 12.8484375 -0.09433594 13.671875 -0.09765625 C14.4050293 -0.10289307 15.13818359 -0.10812988 15.89355469 -0.11352539 C18.0461849 0.0024891 19.9314135 0.40926729 22 1 C22 1.99 22 2.98 22 4 C18.7 4 15.4 4 12 4 C12 7.63 12 11.26 12 15 C15.3 15 18.6 15 22 15 C22 15.99 22 16.98 22 18 C14.74 18 7.48 18 0 18 C0 17.01 0 16.02 0 15 C2.97 15 5.94 15 9 15 C9 11.37 9 7.74 9 4 C6.03 4 3.06 4 0 4 C0 2.68 0 1.36 0 0 Z " fill="#020202" transform="translate(3,171)"/>
<path d="M0 0 C0.33 0.66 0.66 1.32 1 2 C0.28735352 4.06298828 0.28735352 4.06298828 -0.87109375 6.5703125 C-1.28037109 7.46621094 -1.68964844 8.36210938 -2.11132812 9.28515625 C-2.7677832 10.69087891 -2.7677832 10.69087891 -3.4375 12.125 C-3.87126953 13.06988281 -4.30503906 14.01476562 -4.75195312 14.98828125 C-5.8276662 17.32884377 -6.91059513 19.66578661 -8 22 C-8.99 22 -9.98 22 -11 22 C-12 20 -12 20 -11.0625 16.875 C-10.711875 15.92625 -10.36125 14.9775 -10 14 C-12.78522422 11.18551053 -12.78522422 11.18551053 -16 9 C-19.34084905 9.52841069 -19.34084905 9.52841069 -22 11 C-22 9.68 -22 8.36 -22 7 C-19.09191094 5.62683502 -16.17239387 4.27991866 -13.25 2.9375 C-12.425 2.54755859 -11.6 2.15761719 -10.75 1.75585938 C-9.95078125 1.39169922 -9.1515625 1.02753906 -8.328125 0.65234375 C-7.5949707 0.31195068 -6.86181641 -0.02844238 -6.10644531 -0.37915039 C-3.63170411 -1.10855082 -2.37565128 -0.96547245 0 0 Z M-11 6 C-10.34 7.32 -9.68 8.64 -9 10 C-8.01 10 -7.02 10 -6 10 C-5.34 7.69 -4.68 5.38 -4 3 C-6.37220987 3 -8.92877733 4.94235438 -11 6 Z " fill="#030303" transform="translate(308,54)"/>
<path d="M0 0 C5.31912865 4.84979377 10.82098671 10.36006318 11.1875 17.8125 C9.76214622 21.63844962 8.49538088 22.93454766 5 25 C2.5625 26 2.5625 26 0 26 C-6.61348769 23.06067214 -10.04564926 16.82112546 -14 11 C-13.67 10.34 -13.34 9.68 -13 9 C-9.79580145 9.28144987 -8.99753608 10.00288207 -6.859375 12.50390625 C-6.16328125 13.51324219 -5.4671875 14.52257812 -4.75 15.5625 C-3.69039062 17.08037109 -3.69039062 17.08037109 -2.609375 18.62890625 C-2.07828125 19.41136719 -1.5471875 20.19382812 -1 21 C2.465 20.505 2.465 20.505 6 20 C7.34608472 17.03319792 7.34608472 17.03319792 5.9375 14.3125 C3.92999412 10.88031253 1.68033167 7.83954049 -0.79296875 4.734375 C-2 3 -2 3 -2 1 C-1.34 0.67 -0.68 0.34 0 0 Z " fill="#030303" transform="translate(81,33)"/>
<path d="M0 0 C3.4203866 1.17013226 3.91540482 1.87310723 6 5 C6.65237324 9.37433428 7.03401151 14.01269906 4.94921875 18.01953125 C2.32246788 21.20417611 0.34112156 22.84759982 -3.75 23.3125 C-7.88466018 22.91493652 -9.86815404 21.6948442 -13 19 C-13.875 16.25 -13.875 16.25 -14 14 C-12.68 14 -11.36 14 -10 14 C-9.7525 14.639375 -9.505 15.27875 -9.25 15.9375 C-8.19520442 18.11868898 -8.19520442 18.11868898 -6.1875 18.8125 C-3.61235122 19.03322704 -1.49777315 18.62444329 1 18 C1.19627391 16.41773035 1.38165538 14.83410729 1.5625 13.25 C1.66691406 12.36828125 1.77132812 11.4865625 1.87890625 10.578125 C1.99456676 8.11567549 1.73638695 6.33461936 1 4 C-3.02114335 3.72271528 -3.02114335 3.72271528 -7 4 C-8.84315671 5.9004467 -8.84315671 5.9004467 -10 8 C-10.99 8 -11.98 8 -13 8 C-10.85740008 0.41849258 -7.62343647 -0.75464321 0 0 Z " fill="#030303" transform="translate(171,339)"/>
<path d="M0 0 C1.32 0.66 2.64 1.32 4 2 C4 4.31 4 6.62 4 9 C7.465 10.485 7.465 10.485 11 12 C12.32 10.68 13.64 9.36 15 8 C16.32 8.66 17.64 9.32 19 10 C16.46088982 12.54535645 13.89035531 15.05643875 11.3125 17.5625 C10.59126953 18.28630859 9.87003906 19.01011719 9.12695312 19.75585938 C8.42119141 20.43583984 7.71542969 21.11582031 6.98828125 21.81640625 C6.02208862 22.76688843 6.02208862 22.76688843 5.03637695 23.73657227 C3 25 3 25 0.25073242 24.69897461 C-0.49200928 24.46831299 -1.23475098 24.23765137 -2 24 C-1.03644647 7.1070615 -1.03644647 7.1070615 0 0 Z M3 12 C1.58422523 13.18424326 1.58422523 13.18424326 1.9375 16.5625 C1.958125 17.696875 1.97875 18.83125 2 20 C4.03833424 18.7260411 6.03852126 17.38938077 8 16 C8 15.34 8 14.68 8 14 C5.525 13.01 5.525 13.01 3 12 Z " fill="#030303" transform="translate(102,316)"/>
<path d="M0 0 C4.72103812 1.63173745 8.66519664 4.15246401 12.8125 6.875 C13.85180664 7.52662109 13.85180664 7.52662109 14.91210938 8.19140625 C16.89453125 9.4921875 16.89453125 9.4921875 20 12 C20 13.32 20 14.64 20 16 C12.13911504 18.29275811 4.11096635 19.07471986 -4 20 C-3.67 18.68 -3.34 17.36 -3 16 C0.465 15.505 0.465 15.505 4 15 C4.88614548 11.0118162 4.88614548 11.0118162 5 7 C2.65920243 4.64352999 2.65920243 4.64352999 0 3 C0 2.01 0 1.02 0 0 Z M8 8 C7.67 10.31 7.34 12.62 7 15 C11.455 14.505 11.455 14.505 16 14 C13.51047079 11.33264727 11.36591866 9.44253657 8 8 Z " fill="#030303" transform="translate(336,205)"/>
<path d="M0 0 C2.93066136 2.93066136 3.24985876 6.51232949 4.125 10.4375 C4.30675781 11.21416016 4.48851562 11.99082031 4.67578125 12.79101562 C5.40304655 15.96528259 6 18.72771901 6 22 C4.25183142 22.50636607 2.50137737 23.00484619 0.75 23.5 C-0.22453125 23.7784375 -1.1990625 24.056875 -2.203125 24.34375 C-5 25 -5 25 -9 25 C-9 24.01 -9 23.02 -9 22 C-5.12315913 20.80712589 -2.08378077 20 2 20 C1.67 18.02 1.34 16.04 1 14 C-2.3 14.66 -5.6 15.32 -9 16 C-9.33 15.01 -9.66 14.02 -10 13 C-6.38026598 11.68373308 -3.90432869 11 0 11 C-0.495 9.63875 -0.495 9.63875 -1 8.25 C-2 5 -2 5 -2 1 C-1.34 0.67 -0.68 0.34 0 0 Z " fill="#030303" transform="translate(239,329)"/>
<path d="M0 0 C6.435 2.97 6.435 2.97 13 6 C12.67 6.99 12.34 7.98 12 9 C8.27566618 7.7874262 4.62197194 6.49140021 1 5 C0.67 6.65 0.34 8.3 0 10 C2.64 11.32 5.28 12.64 8 14 C7.67 14.99 7.34 15.98 7 17 C3.66666667 15.66666667 0.33333333 14.33333333 -3 13 C-3.4021875 14.1446875 -3.4021875 14.1446875 -3.8125 15.3125 C-4.94424112 17.87380884 -5.91223401 19.19692938 -8 21 C-8.66 20.34 -9.32 19.68 -10 19 C-6.7 12.73 -3.4 6.46 0 0 Z " fill="#020202" transform="translate(255,18)"/>
<path d="M0 0 C0.99 0 1.98 0 3 0 C3.33 1.98 3.66 3.96 4 6 C5.12019531 5.7834375 6.24039062 5.566875 7.39453125 5.34375 C8.86715999 5.06235597 10.33981776 4.78111389 11.8125 4.5 C12.55048828 4.35691406 13.28847656 4.21382812 14.04882812 4.06640625 C17.07794391 3.49073719 19.909196 3 23 3 C23 4.32 23 5.64 23 7 C20.56318413 7.50354867 18.12564561 8.00296756 15.6875 8.5 C14.99720703 8.64308594 14.30691406 8.78617188 13.59570312 8.93359375 C10.67475227 9.52625044 7.98891878 10 5 10 C5.33 12.31 5.66 14.62 6 17 C5.01 17.33 4.02 17.66 3 18 C2.49309416 15.93918639 1.99475381 13.87626474 1.5 11.8125 C1.2215625 10.66394531 0.943125 9.51539063 0.65625 8.33203125 C0.08504615 5.43181171 -0.13283779 2.93903615 0 0 Z " fill="#030303" transform="translate(5,206)"/>
<path d="M0 0 C1.29614258 1.42700195 1.29614258 1.42700195 2.39453125 3.23828125 C2.79220703 3.89376953 3.18988281 4.54925781 3.59960938 5.22460938 C3.99986328 5.91361328 4.40011719 6.60261719 4.8125 7.3125 C5.23208984 7.98990234 5.65167969 8.66730469 6.08398438 9.36523438 C6.47521484 10.02458984 6.86644531 10.68394531 7.26953125 11.36328125 C7.62635986 11.96438721 7.98318848 12.56549316 8.35083008 13.18481445 C9.16955024 15.47409028 8.77606263 16.73785999 8 19 C3.79940376 17.59980125 2.80948475 14.63174123 0.8125 10.9375 C0.44447266 10.27427734 0.07644531 9.61105469 -0.30273438 8.92773438 C-1.21012062 7.28972543 -2.10615573 5.64543779 -3 4 C-3.54269531 4.28875 -4.08539063 4.5775 -4.64453125 4.875 C-5.71767578 5.431875 -5.71767578 5.431875 -6.8125 6 C-7.52019531 6.37125 -8.22789062 6.7425 -8.95703125 7.125 C-11 8 -11 8 -14 8 C-14 7.01 -14 6.02 -14 5 C-11.953125 3.359375 -11.953125 3.359375 -9.25 1.75 C-8.36828125 1.20859375 -7.4865625 0.6671875 -6.578125 0.109375 C-3.65209696 -1.14970373 -2.894953 -1.12350478 0 0 Z " fill="#030303" transform="translate(281,313)"/>
<path d="M0 0 C3.42018347 2.72996572 4.68986833 6.48794336 6.25 10.4375 C6.53101563 11.10587891 6.81203125 11.77425781 7.1015625 12.46289062 C8.23224259 15.28679214 9.07741497 17.41662287 8.671875 20.47265625 C8.45015625 20.97667969 8.2284375 21.48070312 8 22 C5 21 5 21 4.0168457 19.26586914 C3.73929443 18.52973389 3.46174316 17.79359863 3.17578125 17.03515625 C2.86962891 16.23529297 2.56347656 15.43542969 2.24804688 14.61132812 C1.93931641 13.77021484 1.63058594 12.92910156 1.3125 12.0625 C0.83200195 10.80663086 0.83200195 10.80663086 0.34179688 9.52539062 C-2 3.31887993 -2 3.31887993 -2 1 C-1.34 0.67 -0.68 0.34 0 0 Z " fill="#020203" transform="translate(255,323)"/>
<path d="M0 0 C0.66 0 1.32 0 2 0 C2.66 0.66 3.32 1.32 4 2 C4.99 2.33 5.98 2.66 7 3 C6.67 4.32 6.34 5.64 6 7 C1.2 4.53846154 1.2 4.53846154 0.1875 1.8125 C0.125625 1.214375 0.06375 0.61625 0 0 Z " fill="#040404" transform="translate(324,274)"/>
<path d="" fill="#FFFFFF" transform="translate(0,0)"/>
<path d="" fill="#FFFFFF" transform="translate(0,0)"/>
<path d="" fill="#FFFFFF" transform="translate(0,0)"/>
<path d="" fill="#FFFFFF" transform="translate(0,0)"/>
<path d="" fill="#FFFFFF" transform="translate(0,0)"/>
<path d="" fill="#FFFFFF" transform="translate(0,0)"/>
<path d="" fill="#000000" transform="translate(0,0)"/>
<path d="" fill="#FFFFFF" transform="translate(0,0)"/>
<path d="" fill="#FFFFFF" transform="translate(0,0)"/>
<path d="" fill="#FFFFFF" transform="translate(0,0)"/>
<path d="" fill="#FFFFFF" transform="translate(0,0)"/>
<path d="" fill="#FFFFFF" transform="translate(0,0)"/>
<path d="" fill="#FFFFFF" transform="translate(0,0)"/>
<path d="" fill="#FFFFFF" transform="translate(0,0)"/>
<path d="" fill="#FFFFFF" transform="translate(0,0)"/>
<path d="" fill="#FFFFFF" transform="translate(0,0)"/>
<path d="" fill="#FFFFFF" transform="translate(0,0)"/>
<path d="" fill="#FFFFFF" transform="translate(0,0)"/>
<path d="" fill="#FFFFFF" transform="translate(0,0)"/>
<path d="" fill="#FFFFFF" transform="translate(0,0)"/>
<path d="" fill="#FFFFFF" transform="translate(0,0)"/>
<path d="" fill="#FFFFFF" transform="translate(0,0)"/>
<path d="" fill="#FFFFFF" transform="translate(0,0)"/>
<path d="" fill="#FFFFFF" transform="translate(0,0)"/>
<path d="" fill="#FFFFFF" transform="translate(0,0)"/>
<path d="" fill="#FFFFFF" transform="translate(0,0)"/>
<path d="" fill="#FFFFFF" transform="translate(0,0)"/>
<path d="" fill="#FFFFFF" transform="translate(0,0)"/>
<path d="" fill="#FFFFFF" transform="translate(0,0)"/>
<path d="" fill="#FFFFFF" transform="translate(0,0)"/>
<path d="" fill="#FFFFFF" transform="translate(0,0)"/>
<path d="" fill="#FFFFFF" transform="translate(0,0)"/>
<path d="" fill="#FFFFFF" transform="translate(0,0)"/>
<path d="" fill="#FFFFFF" transform="translate(0,0)"/>
<path d="" fill="#FFFFFF" transform="translate(0,0)"/>
<path d="" fill="#FFFFFF" transform="translate(0,0)"/>
<path d="" fill="#FFFFFF" transform="translate(0,0)"/>
<path d="" fill="#FFFFFF" transform="translate(0,0)"/>
<path d="" fill="#FFFFFF" transform="translate(0,0)"/>
<path d="" fill="#FFFFFF" transform="translate(0,0)"/>
<path d="" fill="#FFFFFF" transform="translate(0,0)"/>
<path d="" fill="#FFFFFF" transform="translate(0,0)"/>
<path d="" fill="#FFFFFF" transform="translate(0,0)"/>
<path d="" fill="#FFFFFF" transform="translate(0,0)"/>
<path d="" fill="#FFFFFF" transform="translate(0,0)"/>
<path d="" fill="#FFFFFF" transform="translate(0,0)"/>
<path d="" fill="#FFFFFF" transform="translate(0,0)"/>
<path d="" fill="#FFFFFF" transform="translate(0,0)"/>
<path d="" fill="#FFFFFF" transform="translate(0,0)"/>
<path d="" fill="#FFFFFF" transform="translate(0,0)"/>
<path d="" fill="#FFFFFF" transform="translate(0,0)"/>
<path d="" fill="#FFFFFF" transform="translate(0,0)"/>
<path d="" fill="#FFFFFF" transform="translate(0,0)"/>
<path d="" fill="#FFFFFF" transform="translate(0,0)"/>
<path d="" fill="#FFFFFF" transform="translate(0,0)"/>
<path d="" fill="#FFFFFF" transform="translate(0,0)"/>
<path d="" fill="#FFFFFF" transform="translate(0,0)"/>
<path d="" fill="#FFFFFF" transform="translate(0,0)"/>
<path d="" fill="#FFFFFF" transform="translate(0,0)"/>
<path d="" fill="#FFFFFF" transform="translate(0,0)"/>
<path d="" fill="#FFFFFF" transform="translate(0,0)"/>
<path d="" fill="#FFFFFF" transform="translate(0,0)"/>
<path d="" fill="#FFFFFF" transform="translate(0,0)"/>
<path d="" fill="#FFFFFF" transform="translate(0,0)"/>
<path d="" fill="#FFFFFF" transform="translate(0,0)"/>
<path d="" fill="#FFFFFF" transform="translate(0,0)"/>
<path d="" fill="#FFFFFF" transform="translate(0,0)"/>
<path d="" fill="#FFFFFF" transform="translate(0,0)"/>
<path d="" fill="#FFFFFF" transform="translate(0,0)"/>
<path d="" fill="#FFFFFF" transform="translate(0,0)"/>
<path d="" fill="#000000" transform="translate(0,0)"/>
<path d="" fill="#FFFFFF" transform="translate(0,0)"/>
<path d="" fill="#FFFFFF" transform="translate(0,0)"/>
<path d="" fill="#FFFFFF" transform="translate(0,0)"/>
<path d="" fill="#FFFFFF" transform="translate(0,0)"/>
<path d="" fill="#FFFFFF" transform="translate(0,0)"/>
<path d="" fill="#FFFFFF" transform="translate(0,0)"/>
<path d="" fill="#FFFFFF" transform="translate(0,0)"/>
<path d="" fill="#FFFFFF" transform="translate(0,0)"/>
<path d="" fill="#FFFFFF" transform="translate(0,0)"/>
<path d="" fill="#FFFFFF" transform="translate(0,0)"/>
<path d="" fill="#FFFFFF" transform="translate(0,0)"/>
<path d="" fill="#FFFFFF" transform="translate(0,0)"/>
<path d="" fill="#FFFFFF" transform="translate(0,0)"/>
<path d="" fill="#000000" transform="translate(0,0)"/>
<path d="" fill="#FFFFFF" transform="translate(0,0)"/>
<path d="" fill="#FFFFFF" transform="translate(0,0)"/>
<path d="" fill="#FFFFFF" transform="translate(0,0)"/>
<path d="" fill="#FFFFFF" transform="translate(0,0)"/>
</svg>
